<?xml version="1.0" encoding="utf-8"?>
<!-- Generator: Adobe Illustrator 15.0.2, SVG Export Plug-In . SVG Version: 6.00 Build 0)  -->
<!DOCTYPE svg PUBLIC "-//W3C//DTD SVG 1.1//EN" "http://www.w3.org/Graphics/SVG/1.1/DTD/svg11.dtd">
<svg version="1.1" id="Слой_1" xmlns="http://www.w3.org/2000/svg" xmlns:xlink="http://www.w3.org/1999/xlink" x="0px" y="0px"
	 width="91px" height="79px" viewBox="0 0 91 79" enable-background="new 0 0 91 79" xml:space="preserve">
<ellipse id="круг" cx="45.75" cy="39.584" rx="40.25" ry="39.625"/>
<ellipse id="клдесо_1" fill="none" stroke="#FFFFFF" stroke-width="1.5" stroke-miterlimit="10" cx="25.671" cy="36.915" rx="10.95" ry="10.445"/>
<path id="колесо_2" fill="none" stroke="#FFFFFF" stroke-width="1.5" stroke-miterlimit="10" d="M75.584,36.914
	c0-5.764-4.906-10.441-10.953-10.441s-10.941,4.676-10.941,10.441c0,5.771,4.896,10.447,10.941,10.447S75.584,42.686,75.584,36.914z
	"/>
<line id="велик_1" fill="none" stroke="#FFFFFF" stroke-width="1.5" stroke-miterlimit="10" x1="58.923" y1="22.597" x2="34.615" y2="22.433"/>
<line id="велик_2" fill="none" stroke="#FFFFFF" stroke-width="1.5" stroke-miterlimit="10" x1="34.615" y1="22.433" x2="25.674" y2="36.914"/>
<line id="велик_3" fill="none" stroke="#FFFFFF" stroke-width="1.5" stroke-miterlimit="10" x1="25.674" y1="36.914" x2="39.437" y2="36.916"/>
<line id="велик_4" fill="none" stroke="#FFFFFF" stroke-width="1.5" stroke-miterlimit="10" x1="39.437" y1="36.916" x2="58.923" y2="22.597"/>
<path id="велик_5" fill="none" stroke="#FFFFFF" stroke-width="1.5" stroke-miterlimit="10" d="M58.923,17.144
	c0,0,2.609,18.554,6.729,19.77"/>
<line id="велик_6" fill="none" stroke="#FFFFFF" stroke-width="1.5" stroke-miterlimit="10" x1="33.608" y1="17.144" x2="39.437" y2="36.916"/>
<line id="велик_7" fill="none" stroke="#FFFFFF" stroke-width="1.5" stroke-miterlimit="10" x1="53.048" y1="16.949" x2="63.501" y2="16.949"/>
<path id="велик_8" fill="none" stroke="#FFFFFF" stroke-width="1.5" stroke-miterlimit="10" d="M64.139,16.979
	c0,0,0.795,3.967-1.418,5.618"/>
<path id="круг_1" fill="none" stroke="#FFFFFF" stroke-width="1.5" stroke-miterlimit="10" d="M26.287,36.916
	c0,0.094-0.094,0.168-0.206,0.168c-0.113,0-0.205-0.074-0.205-0.168c0-0.095,0.092-0.169,0.205-0.169
	C26.193,36.747,26.287,36.821,26.287,36.916z"/>
<ellipse id="круг_2" fill="none" stroke="#FFFFFF" stroke-width="1.5" stroke-miterlimit="10" cx="63.839" cy="17.062" rx="0.136" ry="0.113"/>
<ellipse id="круг_3" fill="none" stroke="#FFFFFF" stroke-width="1.5" stroke-miterlimit="10" cx="65.652" cy="36.802" rx="0.139" ry="0.112"/>
<line id="седло" fill="none" stroke="#FFFFFF" stroke-width="1.5" stroke-miterlimit="10" x1="37.675" y1="16.979" x2="29.313" y2="16.979"/>
<text transform="matrix(0.9738 0 0 1 16.2241 60.9688)" fill="#FFFFFF" font-family="'MyriadPro-Bold'" font-size="14">PARKING</text>
<text transform="matrix(0.9738 0 0 1 16.2241 60.9688)" fill="none" stroke="#FFFFFF" stroke-width="0.5" stroke-miterlimit="10" font-family="'MyriadPro-Bold'" font-size="14">PARKING</text>
</svg>
