<?xml version="1.0" encoding="utf-8"?>
<!-- Generator: Adobe Illustrator 15.0.2, SVG Export Plug-In . SVG Version: 6.00 Build 0)  -->
<!DOCTYPE svg PUBLIC "-//W3C//DTD SVG 1.1//EN" "http://www.w3.org/Graphics/SVG/1.1/DTD/svg11.dtd">
<svg version="1.1" id="резерв" xmlns="http://www.w3.org/2000/svg" xmlns:xlink="http://www.w3.org/1999/xlink" x="0px"
	 y="0px" width="100px" height="86px" viewBox="0 0 100 86" enable-background="new 0 0 100 86" xml:space="preserve">
<path id="контур" fill="none" stroke="#000000" stroke-width="5" stroke-miterlimit="10" d="M13.678,32.21
	c0-7.731,6.501-14,14.519-14h45.071c8.017,0,14.519,6.268,14.519,14v31.207c0,7.729-6.502,14-14.519,14H28.197
	c-8.018,0-14.519-6.271-14.519-14V32.21z"/>
<line id="г._полоса_1" fill="none" stroke="#000000" stroke-width="3" stroke-miterlimit="10" x1="15.343" y1="35.714" x2="89.063" y2="35.714"/>
<line id="г._полоса_2" fill="none" stroke="#000000" stroke-width="3" stroke-miterlimit="10" x1="13.678" y1="48.5" x2="87.109" y2="48.5"/>
<line id="г._полоса_3" fill="none" stroke="#000000" stroke-width="3" stroke-miterlimit="10" x1="13.678" y1="61.741" x2="87.785" y2="61.741"/>
<line id="в._полоса_1" fill="none" stroke="#000000" stroke-width="3" stroke-miterlimit="10" x1="33.179" y1="35.714" x2="33.179" y2="75.135"/>
<line id="вю_полоса_2" fill="none" stroke="#000000" stroke-width="3" stroke-miterlimit="10" x1="51.031" y1="35.714" x2="51.031" y2="75.135"/>
<line id="в._полоса_3" fill="none" stroke="#000000" stroke-width="3" stroke-miterlimit="10" x1="68.584" y1="35.714" x2="68.584" y2="75.135"/>
<rect id="зажим_1" x="29.43" y="11.514" width="7.5" height="14.459"/>
<rect id="зажим_2" x="65.432" y="11.514" width="7.502" height="14.459"/>
<ellipse id="зажим_1.1" cx="33.179" cy="11.058" rx="3.751" ry="2.892"/>
<ellipse id="зажим_1.2" cx="33.179" cy="25.974" rx="3.751" ry="2.892"/>
<ellipse id="зажим_2.1" cx="69.184" cy="11.058" rx="3.75" ry="2.892"/>
<ellipse id="зажим_2.2" cx="69.184" cy="25.974" rx="3.75" ry="2.892"/>
<path id="черный_день" d="M80.857,61.18c-2.172,0.969-4.436,0.844-6.734,0.771c-0.518-0.227-1.087-0.362-1.709-0.362
	c-2.396,0-4.827,2.302-4.646,5.052c0.084,1.248,0.426,2.689,0.168,3.877c-1.121,5.146,4.076,7.83,7.354,5.153
	c0.026-0.01,0.036-0.013,0.063-0.022c0.424-0.145,0.864-0.233,1.297-0.336c0.857-0.199,1.717-0.367,2.557-0.646
	c1.345-0.444,2.374-1.194,3.404-2.217c0.352-0.349,0.64-0.796,0.938-1.195c0.164-0.226,0.345-0.437,0.525-0.644
	c0.069-0.031,0.176-0.09,0.362-0.196C89.207,68.05,85.723,59.007,80.857,61.18z"/>
</svg>
