<?xml version="1.0" encoding="utf-8"?>
<!-- Generator: Adobe Illustrator 15.0.2, SVG Export Plug-In . SVG Version: 6.00 Build 0)  -->
<!DOCTYPE svg PUBLIC "-//W3C//DTD SVG 1.1//EN" "http://www.w3.org/Graphics/SVG/1.1/DTD/svg11.dtd">
<svg version="1.1" id="Слой_1" xmlns="http://www.w3.org/2000/svg" xmlns:xlink="http://www.w3.org/1999/xlink" x="0px" y="0px"
	 width="100px" height="86px" viewBox="0 0 100 86" enable-background="new 0 0 100 86" xml:space="preserve">
<path d="M31.707,55.009l4.187,5.021c0,0,14.656-14.899,29.311,0l5.314-5.021C70.52,55.009,52.965,34.114,31.707,55.009z"/>
<path d="M44.06,69.829c0-4.161,3.208-7.532,7.167-7.532c3.953,0,7.164,3.371,7.164,7.532c0,4.159-3.211,7.53-7.164,7.53
	C47.268,77.359,44.06,73.988,44.06,69.829z"/>
<path fill="#FFFFFF" d="M-8.233,72.178"/>
<path d="M21.883,42.537l4.388,4.717c0,0,24.052-22.858,49.241,0.467l4.832-5.184C80.344,42.537,53.287,12.086,21.883,42.537z"/>
<path d="M12.437,29.513l5.688,5.737c0,0,31-32.75,67.589-0.625l5.637-5.112C91.351,29.513,56.242-10.261,12.437,29.513z"/>
</svg>
