<?xml version="1.0" encoding="utf-8"?>
<!-- Generator: Adobe Illustrator 15.0.2, SVG Export Plug-In . SVG Version: 6.00 Build 0)  -->
<!DOCTYPE svg PUBLIC "-//W3C//DTD SVG 1.1//EN" "http://www.w3.org/Graphics/SVG/1.1/DTD/svg11.dtd">
<svg version="1.1" id="не_пить" xmlns="http://www.w3.org/2000/svg" xmlns:xlink="http://www.w3.org/1999/xlink" x="0px"
	 y="0px" width="100px" height="86px" viewBox="0 0 100 86" enable-background="new 0 0 100 86" xml:space="preserve">
<ellipse id="круг" fill="none" stroke="#000000" stroke-width="8" stroke-miterlimit="10" cx="50" cy="42.509" rx="35.125" ry="31.492"/>
<rect id="контур" x="17.746" y="38.51" transform="matrix(0.8262 0.5634 -0.5634 0.8262 32.6396 -20.7796)" width="64.503" height="8"/>
<line id="коктель_1" fill="none" stroke="#000000" stroke-miterlimit="10" x1="41.351" y1="55" x2="50.101" y2="43.875"/>
<line id="коктель_2" fill="none" stroke="#000000" stroke-miterlimit="10" x1="31.726" y1="44" x2="41.351" y2="55"/>
<line id="коктель_3" fill="none" stroke="#000000" stroke-miterlimit="10" x1="47.856" y1="46.729" x2="33.925" y2="46.729"/>
<line id="коктель_4" fill="none" stroke="#000000" stroke-miterlimit="10" x1="36.757" y1="63.625" x2="45.945" y2="63.625"/>
<line id="коктель_5" fill="none" stroke="#000000" stroke-miterlimit="10" x1="41.351" y1="54.67" x2="41.351" y2="63.295"/>
<line id="коктель_6" fill="none" stroke="#000000" stroke-miterlimit="10" x1="31.726" y1="44" x2="50.101" y2="44"/>
<circle id="круг_1" cx="31.726" cy="44" r="0.5"/>
<path id="напиток" d="M45.468,48.628c-0.024-0.877-0.848-1.741-1.709-1.841c-2.21-0.258-4.499-0.932-6.694-0.239
	c-1.2,0.38-1.815,2.146-0.967,3.138c1.256,1.474,2.631,2.795,4.148,3.994c1.425,1.123,3.112,0.021,3.393-1.322
	C44.783,51.426,45.51,50.205,45.468,48.628z"/>
<ellipse id="напиток_2" cx="35.801" cy="47.364" rx="0.83" ry="0.694"/>
<path id="напиток_3" d="M47.172,47.007c0.318,0.612,0.002,1.399-0.698,1.763c-0.703,0.365-1.529,0.162-1.844-0.449
	c-0.317-0.612-0.001-1.402,0.7-1.766C46.033,46.189,46.858,46.396,47.172,47.007z"/>
<path id="бутылка_1" d="M59.705,63.625h-7.066V36.25c0,0,0.131-4.5,4.883-4.25l0.258-10.75l1.927-2"/>
<path id="бутылув_2" d="M58.705,19.25l1.926,2L60.889,32c4.752-0.25,4.883,4.25,4.883,4.25v27.375h-7.065"/>
<path id="горлышко" d="M57.25,20.355c0-0.61,0.418-1.104,0.936-1.104h1.975c0.517,0,0.936,0.495,0.936,1.104l0,0
	c0,0.609-0.419,1.104-0.936,1.104h-1.975C57.668,21.458,57.25,20.964,57.25,20.355L57.25,20.355z"/>
</svg>
